<?xml version="1.0" standalone="no"?>
<!DOCTYPE svg PUBLIC "-//W3C//DTD SVG 20010904//EN"
 "http://www.w3.org/TR/2001/REC-SVG-20010904/DTD/svg10.dtd">
<svg version="1.0" xmlns="http://www.w3.org/2000/svg"
 width="700.000000pt" height="700.000000pt" viewBox="0 0 700.000000 700.000000"
 preserveAspectRatio="xMidYMid meet">
<metadata>
Created by potrace 1.14, written by Peter Selinger 2001-2017
</metadata>
<g transform="translate(0.000000,700.000000) scale(0.100000,-0.100000)"
fill="#000000" stroke="none">
<path d="M0 3500 l0 -3500 3500 0 3500 0 0 3500 0 3500 -3500 0 -3500 0 0
-3500z m3740 1530 c577 -36 926 -143 1100 -338 102 -114 147 -253 137 -421
-11 -188 -85 -325 -236 -439 -42 -32 -106 -73 -143 -92 -38 -19 -68 -37 -68
-40 0 -3 35 -18 77 -34 171 -66 334 -190 421 -320 104 -155 146 -318 146 -561
0 -189 -13 -256 -78 -390 -115 -236 -354 -397 -719 -485 -375 -90 -795 -100
-2142 -50 -159 6 -318 13 -352 16 l-63 6 0 1553 0 1553 88 6 c104 7 543 25
882 35 374 12 767 12 950 1z"/>
<path d="M3385 4230 c-81 -28 -127 -50 -272 -131 l-43 -24 0 -252 c0 -139 4
-253 9 -253 15 0 248 99 333 141 254 127 383 309 320 451 -29 66 -75 91 -176
95 -70 3 -93 0 -171 -27z"/>
<path d="M3545 3231 c-89 -25 -206 -75 -356 -154 l-119 -62 0 -247 0 -248 28
11 c15 6 80 31 145 55 385 144 514 224 578 359 36 75 41 181 10 231 -40 66
-161 89 -286 55z"/>
</g>
</svg>
