<svg width="20" height="20" viewBox="0 0 20 20" fill="none" xmlns="http://www.w3.org/2000/svg">
<g id="Folder" clip-path="url(#clip0_349_648)">
<rect width="20" height="20" fill="white"/>
<g id="Group">
<path id="Vector" d="M2.50008 17.5C2.27907 17.5 2.06711 17.4122 1.91083 17.2559C1.75455 17.0996 1.66675 16.8877 1.66675 16.6667V3.33333C1.66675 3.11232 1.75455 2.90036 1.91083 2.74408C2.06711 2.5878 2.27907 2.5 2.50008 2.5H8.67842L10.3451 4.16667H16.6667C16.8878 4.16667 17.0997 4.25446 17.256 4.41074C17.4123 4.56702 17.5001 4.77899 17.5001 5V7.5H15.8334V5.83333H9.65508L7.98842 4.16667H3.33341V14.165L4.58342 9.16667H18.7501L16.8251 16.8692C16.7799 17.0494 16.6759 17.2093 16.5294 17.3236C16.383 17.4379 16.2025 17.5 16.0167 17.5H2.50008ZM16.6151 10.8333H5.88508L4.63508 15.8333H15.3651L16.6151 10.8333Z" fill="black"/>
</g>
</g>
<defs>
<clipPath id="clip0_349_648">
<rect width="20" height="20" fill="white"/>
</clipPath>
</defs>
</svg>
