<svg width="20" height="20" viewBox="0 0 20 20" fill="none" xmlns="http://www.w3.org/2000/svg">
<g clip-path="url(#clip0_349_652)">
<rect width="20" height="20" fill="white"/>
<g clip-path="url(#clip1_349_652)">
<path d="M10.8833 6.75832L12.0625 7.93749C12.6042 8.47917 13.0339 9.12226 13.3271 9.83003C13.6203 10.5378 13.7712 11.2964 13.7712 12.0625C13.7712 12.8286 13.6203 13.5872 13.3271 14.2949C13.0339 15.0027 12.6042 15.6458 12.0625 16.1875L11.7675 16.4817C10.6735 17.5757 9.18964 18.1903 7.64247 18.1903C6.09529 18.1903 4.61149 17.5757 3.51747 16.4817C2.42345 15.3876 1.80884 13.9038 1.80884 12.3567C1.80884 10.8095 2.42345 9.32568 3.51747 8.23166L4.69664 9.41082C4.30694 9.79712 3.99739 10.2566 3.78574 10.7628C3.5741 11.2691 3.46453 11.8121 3.46333 12.3609C3.46212 12.9096 3.56931 13.4531 3.77874 13.9603C3.98817 14.4674 4.29571 14.9283 4.6837 15.3163C5.0717 15.7043 5.53251 16.0118 6.03968 16.2212C6.54685 16.4306 7.0904 16.5378 7.63911 16.5366C8.18781 16.5354 8.73088 16.4259 9.23713 16.2142C9.74338 16.0026 10.2028 15.693 10.5891 15.3033L10.8841 15.0083C11.6653 14.227 12.1041 13.1673 12.1041 12.0625C12.1041 10.9576 11.6653 9.89802 10.8841 9.11666L9.70497 7.93749L10.8841 6.75916L10.8833 6.75832ZM16.4816 11.7675L15.3033 10.5892C15.693 10.2029 16.0025 9.7434 16.2142 9.23715C16.4258 8.7309 16.5354 8.18784 16.5366 7.63913C16.5378 7.09042 16.4306 6.54688 16.2212 6.0397C16.0118 5.53253 15.7042 5.07172 15.3162 4.68373C14.9282 4.29573 14.4674 3.98819 13.9603 3.77876C13.4531 3.56933 12.9095 3.46215 12.3608 3.46335C11.8121 3.46455 11.2691 3.57412 10.7628 3.78576C10.2566 3.99741 9.7971 4.30696 9.4108 4.69666L9.1158 4.99166C8.33467 5.77302 7.89586 6.83264 7.89586 7.93749C7.89586 9.04234 8.33467 10.102 9.1158 10.8833L10.295 12.0625L9.1158 13.2408L7.93747 12.0625C7.39573 11.5208 6.966 10.8777 6.67281 10.1699C6.37962 9.46218 6.22871 8.70358 6.22871 7.93749C6.22871 7.1714 6.37962 6.4128 6.67281 5.70503C6.966 4.99726 7.39573 4.35417 7.93747 3.81249L8.23247 3.51832C9.32649 2.42431 10.8103 1.80969 12.3575 1.80969C13.9046 1.80969 15.3884 2.42431 16.4825 3.51832C17.5765 4.61234 18.1911 6.09615 18.1911 7.64332C18.1911 9.1905 17.5765 10.6743 16.4825 11.7683L16.4816 11.7675Z" fill="black"/>
</g>
</g>
<defs>
<clipPath id="clip0_349_652">
<rect width="20" height="20" fill="white"/>
</clipPath>
<clipPath id="clip1_349_652">
<rect width="20" height="20" fill="white"/>
</clipPath>
</defs>
</svg>
