<svg width="20" height="20" viewBox="0 0 20 20" fill="none" xmlns="http://www.w3.org/2000/svg">
<g id="Airtable">
<rect width="20" height="20" fill="white"/>
<g id="Group 5">
<path id="Vector" d="M9.14448 3.16899L3.1792 5.63731C2.84747 5.77459 2.85091 6.24586 3.18472 6.37818L9.17487 8.75362C9.70117 8.96235 10.2873 8.96235 10.8136 8.75362L16.8038 6.37808C17.1376 6.24586 17.1412 5.77468 16.8093 5.6374L10.8442 3.1689C10.3 2.9437 9.68861 2.9437 9.14439 3.1689" fill="#FCB400"/>
<path id="Vector_2" d="M10.5259 10.0507V15.9849C10.5259 16.2671 10.8105 16.4604 11.0728 16.3564L17.7477 13.7656C17.8222 13.7361 17.886 13.6849 17.931 13.6186C17.976 13.5524 18 13.4741 18 13.3941V7.45989C18 7.17763 17.7154 6.98436 17.4531 7.08837L10.7782 9.67923C10.7038 9.70876 10.6399 9.75996 10.5949 9.82621C10.5499 9.89245 10.5259 9.97059 10.5259 10.0507Z" fill="#18BFFF"/>
<path id="Vector_3" d="M8.96715 10.3569L6.9862 11.3134L6.78507 11.4106L2.6034 13.4142C2.33842 13.5421 2 13.3489 2 13.0545V7.48477C2 7.37823 2.05462 7.28626 2.12788 7.21707C2.15793 7.18715 2.19203 7.16157 2.22917 7.1411C2.32901 7.08114 2.47154 7.06514 2.59273 7.11307L8.93387 9.62561C9.25619 9.75349 9.28152 10.205 8.96715 10.3569Z" fill="#F82B60"/>
<path id="Vector_4" d="M8.9672 10.3569L6.98625 11.3134L2.12793 7.21698C2.15799 7.18709 2.19208 7.16155 2.22922 7.1411C2.32906 7.08114 2.47159 7.06514 2.59278 7.11307L8.93392 9.62561C9.25624 9.75349 9.28157 10.205 8.9672 10.3569Z" fill="black" fill-opacity="0.25"/>
</g>
</g>
</svg>
