<svg width="20" height="20" viewBox="0 0 20 20" fill="none" xmlns="http://www.w3.org/2000/svg">
<rect width="20" height="20" fill="white"/>
<g clip-path="url(#clip0_308_1313)">
<path d="M11.5002 2H5.12463C4.52535 2 4 2.5088 4 3.0912V16.9094C4 17.4912 4.52469 18.0006 5.12529 18.0006H14.8754C15.4753 18.0006 16.0007 17.4918 16.0007 16.9094V6.36352L13.3759 4.54528L11.5002 2Z" fill="#4285F4"/>
<path d="M6.99976 13.6365H12.9998V12.9094H7.00042L6.99976 13.6365ZM6.99976 15.0912H11.4996V14.3642H6.99976V15.0912ZM6.99976 10V10.727H12.9998V10H6.99976ZM6.99976 12.1818H12.9998V11.4547H7.00042L6.99976 12.1818Z" fill="#F1F1F1"/>
<path d="M11.5002 2V5.27296C11.5002 5.85472 12.0249 6.36352 12.6249 6.36352H16.0001L11.5002 2Z" fill="#A1C2FA"/>
</g>
<defs>
<clipPath id="clip0_308_1313">
<rect width="12" height="16" fill="white" transform="translate(4 2)"/>
</clipPath>
</defs>
</svg>
