<svg width="20" height="20" viewBox="0 0 20 20" fill="none" xmlns="http://www.w3.org/2000/svg">
<g id="Drive">
<rect width="20" height="20" fill="white"/>
<g id="Group 8">
<path id="Vector" d="M9.80192 7.15637L7.03209 2.26823C7.12405 2.1746 7.22985 2.11318 7.33565 2.0719C6.51892 2.34072 6.14413 3.25793 6.14413 3.25793L1.08407 12.1854C1.01287 12.4654 0.993094 12.718 1.00199 12.9406H6.52485L9.80192 7.15637Z" fill="#34A853"/>
<path id="Vector_2" d="M9.802 7.15637L13.0791 12.9406H18.6019C18.6108 12.718 18.591 12.4654 18.5198 12.1854L13.4598 3.25793C13.4598 3.25793 13.084 2.34072 12.2682 2.0719C12.373 2.11318 12.4798 2.1746 12.5718 2.26823L9.802 7.15637Z" fill="#FBBC05"/>
<path id="Vector_3" d="M9.80181 7.15694L12.5716 2.26883C12.4797 2.17519 12.3728 2.11377 12.2681 2.07249C12.1474 2.03323 12.0179 2.00705 11.8774 2H11.7311H7.87256H7.72618C7.58676 2.00604 7.45623 2.03222 7.33554 2.07249C7.23078 2.11377 7.12394 2.17519 7.03198 2.26883L9.80181 7.15694Z" fill="#188038"/>
<path id="Vector_4" d="M6.52574 12.9407L3.78758 17.7735C3.78758 17.7735 3.69661 17.7292 3.573 17.6375C3.96163 17.9366 4.33937 18 4.33937 18H15.0933C15.6866 18 15.8103 17.7735 15.8103 17.7735C15.8122 17.7725 15.8132 17.7714 15.8151 17.7705L13.079 12.9407H6.52574Z" fill="#4285F4"/>
<path id="Vector_5" d="M6.52602 12.9407H1.00317C1.03086 13.5972 1.31566 13.9808 1.31566 13.9808L1.52332 14.3412C1.53816 14.3624 1.54706 14.3745 1.54706 14.3745L1.99896 15.1678L3.01354 16.9338C3.04321 17.0053 3.07782 17.0707 3.11441 17.1331C3.12825 17.1543 3.1411 17.1774 3.15594 17.1976C3.15989 17.2036 3.16385 17.2097 3.16781 17.2157C3.2934 17.3929 3.43381 17.5298 3.57423 17.6375C3.69784 17.7302 3.78882 17.7735 3.78882 17.7735L6.52602 12.9407Z" fill="#1967D2"/>
<path id="Vector_6" d="M13.0791 12.9407H18.6019C18.5742 13.5972 18.2894 13.9808 18.2894 13.9808L18.0817 14.3412C18.0669 14.3624 18.0581 14.3745 18.0581 14.3745L17.6061 15.1678L16.5915 16.9338C16.5619 17.0053 16.5273 17.0707 16.4907 17.1331C16.4769 17.1543 16.464 17.1774 16.4492 17.1976C16.4452 17.2036 16.4412 17.2097 16.4372 17.2157C16.3117 17.3929 16.1713 17.5298 16.0308 17.6375C15.9073 17.7302 15.8163 17.7735 15.8163 17.7735L13.0791 12.9407Z" fill="#EA4335"/>
</g>
</g>
</svg>
