<svg width="20" height="20" viewBox="0 0 20 20" fill="none" xmlns="http://www.w3.org/2000/svg">
<g id="Evernote">
<rect width="20" height="20" fill="white"/>
<g id="Group">
<path id="Vector" d="M7.28543 5.59528C7.28543 5.75415 7.27241 6.01979 7.11224 6.19168C6.94036 6.35054 6.67472 6.36356 6.51585 6.36356H4.81783C4.32691 6.36356 4.03522 6.36356 3.83599 6.38961C3.73052 6.40263 3.59769 6.45602 3.53128 6.48206C3.50524 6.49508 3.50524 6.48206 3.51826 6.46904L7.39091 2.53128C7.40393 2.51826 7.41695 2.51826 7.40393 2.54431C7.37789 2.61072 7.3245 2.74354 7.31148 2.84901C7.28543 3.04824 7.28543 3.33993 7.28543 3.83085V5.59528ZM10.8937 17.5088C10.4432 17.2171 10.2036 16.8317 10.1111 16.5934C10.0187 16.3681 9.96529 16.1155 9.96529 15.8642C9.96529 14.7625 10.8677 13.8614 11.9823 13.8614C12.3144 13.8614 12.5787 14.1271 12.5787 14.4578C12.5787 14.6831 12.4589 14.8693 12.274 14.9748C12.2076 15.0152 12.1152 15.0412 12.0488 15.0542C11.9823 15.0672 11.731 15.0946 11.6112 15.2001C11.4784 15.3068 11.3729 15.4787 11.3729 15.6649C11.3729 15.8642 11.4524 16.0504 11.5852 16.1819C11.8235 16.4202 12.1425 16.553 12.4876 16.553C13.39 16.553 14.1192 15.8238 14.1192 14.9214C14.1192 14.1128 13.5749 13.3953 12.8587 13.0775C12.7532 13.0241 12.58 12.9851 12.4212 12.9447C12.2219 12.9043 12.037 12.8783 12.0227 12.8783C11.4641 12.8119 10.0708 12.3744 9.97831 11.1412C9.97831 11.1412 9.56683 12.9981 8.74386 13.502C8.66443 13.5424 8.55765 13.5815 8.43915 13.6088C8.32066 13.6362 8.18653 13.6479 8.14747 13.6479C6.80754 13.7273 5.38817 13.3028 4.40634 12.2949C4.40634 12.2949 3.74354 11.7506 3.39846 10.2258C3.31903 9.85467 3.16017 9.19057 3.06641 8.56683C3.02604 8.34156 3.01302 8.16967 3 8.0095C3 7.35972 3.39846 6.92219 3.9024 6.85578C3.91542 6.85578 3.95579 6.85578 3.98183 6.85578C4.28654 6.85578 6.60831 6.85578 6.60831 6.85578C7.07318 6.85578 7.33752 6.73598 7.51071 6.57712C7.73598 6.36487 7.78937 6.06016 7.78937 5.70206C7.78937 5.70206 7.78937 3.28784 7.78937 2.98183C7.78937 2.96881 7.78937 2.91542 7.78937 2.9024C7.85578 2.41148 8.29331 2 8.94309 2C8.94309 2 9.14232 2 9.26212 2C9.39494 2 9.55381 2.01302 9.69965 2.02604C9.80643 2.03907 9.89888 2.06641 10.0577 2.10548C10.8664 2.30471 11.0396 3.12637 11.0396 3.12637C11.0396 3.12637 12.5657 3.39202 13.3353 3.52484C14.0645 3.65766 15.8693 3.77746 16.2144 5.59398C17.023 9.91848 16.5334 14.1115 16.4931 14.1115C15.9227 18.1977 12.5267 17.9984 12.5267 17.9984C11.7948 17.9997 11.2518 17.7601 10.8937 17.5088ZM13.9447 8.81945C13.5072 8.77908 13.1361 8.95227 13.0032 9.28432C12.9772 9.35073 12.9499 9.43017 12.9629 9.47053C12.9759 9.5109 13.0032 9.52392 13.0293 9.53694C13.1882 9.61638 13.4538 9.65674 13.8379 9.69581C14.2221 9.73618 14.4877 9.76222 14.6609 9.73618C14.687 9.73618 14.7143 9.72315 14.7403 9.68279C14.7664 9.64242 14.7534 9.56299 14.7534 9.49658C14.7013 9.12416 14.3822 8.87154 13.9447 8.81945Z" fill="#00A82D"/>
</g>
</g>
</svg>
