<svg width="20" height="20" viewBox="0 0 20 20" fill="none" xmlns="http://www.w3.org/2000/svg">
<g id="Figma">
<rect width="20" height="20" fill="white"/>
<g id="Group 2">
<path id="Vector" d="M9.99658 10.0064C9.99658 8.3522 11.3375 7.0043 12.9983 7.0043C14.6523 7.0043 16 8.3454 16 10.0064C16 11.6607 14.6591 13.0086 12.9983 13.0086C11.3443 13.0086 9.99658 11.6607 9.99658 10.0064Z" fill="#1ABCFE"/>
<path id="Vector_2" d="M4 16.0039C4 14.3497 5.34089 13.0018 7.0017 13.0018H10.0034V16.0039C10.0034 17.6582 8.6625 19.0061 7.0017 19.0061C5.34089 19.0061 4 17.665 4 16.0039Z" fill="#0ACF83"/>
<path id="Vector_3" d="M9.99658 1.00681V7.00429H12.9983C14.6523 7.00429 16 5.6632 16 4.00214C16 2.3479 14.6591 1 12.9983 1H9.99658V1.00681Z" fill="#FF7262"/>
<path id="Vector_4" d="M4 4.00895C4 5.66319 5.34089 7.0111 7.0017 7.0111H10.0034V1.00681H7.0017C5.34089 1.00681 4 2.3479 4 4.00895Z" fill="#F24E1E"/>
<path id="Vector_5" d="M4 10.0064C4 11.6607 5.34089 13.0086 7.0017 13.0086H10.0034V7.0043H7.0017C5.34089 7.0043 4 8.3522 4 10.0064Z" fill="#A259FF"/>
</g>
</g>
</svg>
