<svg width="20" height="20" viewBox="0 0 20 20" fill="none" xmlns="http://www.w3.org/2000/svg">
<g id="GitHub">
<rect width="20" height="20" fill="white"/>
<path id="Vector" fill-rule="evenodd" clip-rule="evenodd" d="M10.0066 2C5.57917 2 2 5.59184 2 10.0354C2 13.5874 4.29329 16.5941 7.4747 17.6583C7.87246 17.7383 8.01816 17.4854 8.01816 17.2727C8.01816 17.0864 8.00505 16.4478 8.00505 15.7825C5.7778 16.2616 5.31399 14.8247 5.31399 14.8247C4.95606 13.8934 4.42572 13.654 4.42572 13.654C3.69674 13.1618 4.47882 13.1618 4.47882 13.1618C5.28744 13.215 5.71175 13.9866 5.71175 13.9866C6.42745 15.2104 7.58074 14.8647 8.04471 14.6518C8.11092 14.1329 8.32315 13.7737 8.5485 13.5742C6.77211 13.3879 4.90313 12.6962 4.90313 9.60963C4.90313 8.73159 5.22107 8.01322 5.72486 7.45453C5.64538 7.25502 5.36693 6.43004 5.80451 5.32588C5.80451 5.32588 6.48055 5.11298 8.00488 6.15069C8.6575 5.9748 9.33054 5.88532 10.0066 5.88457C10.6827 5.88457 11.3718 5.9778 12.0082 6.15069C13.5327 5.11298 14.2087 5.32588 14.2087 5.32588C14.6463 6.43004 14.3677 7.25502 14.2882 7.45453C14.8053 8.01322 15.1101 8.73159 15.1101 9.60963C15.1101 12.6962 13.2411 13.3745 11.4515 13.5742C11.7432 13.8269 11.9949 14.3058 11.9949 15.0642C11.9949 16.1417 11.9818 17.0065 11.9818 17.2725C11.9818 17.4854 12.1277 17.7383 12.5253 17.6584C15.7067 16.594 18 13.5874 18 10.0354C18.0131 5.59184 14.4208 2 10.0066 2Z" fill="#24292F"/>
</g>
</svg>
