<svg width="20" height="20" viewBox="0 0 20 20" fill="none" xmlns="http://www.w3.org/2000/svg">
<g id="Gitlub">
<rect width="20" height="20" fill="white"/>
<g id="LOGO">
<path id="Vector" d="M17.7337 8.09936L17.7112 8.04188L15.5335 2.35846C15.4891 2.24707 15.4107 2.15258 15.3094 2.08854C15.2079 2.02559 15.0897 1.99527 14.9705 2.00167C14.8513 2.00808 14.7369 2.0509 14.6429 2.12436C14.5498 2.19993 14.4824 2.30232 14.4496 2.41761L12.9792 6.91636H7.02499L5.55457 2.41761C5.52268 2.30169 5.45505 2.19879 5.36129 2.12353C5.26722 2.05007 5.15287 2.00725 5.03368 2.00084C4.9145 1.99443 4.79622 2.02475 4.69481 2.0877C4.5937 2.152 4.51531 2.24641 4.47071 2.35763L2.28882 8.03854L2.26716 8.09603C1.95366 8.91514 1.91497 9.81396 2.1569 10.657C2.39884 11.5 2.90829 12.2415 3.60845 12.7697L3.61595 12.7756L3.63594 12.7897L6.95335 15.274L8.59456 16.5162L9.59428 17.271C9.71122 17.3598 9.85401 17.4078 10.0008 17.4078C10.1477 17.4078 10.2904 17.3598 10.4074 17.271L11.4071 16.5162L13.0483 15.274L16.3857 12.7747L16.394 12.7681C17.0926 12.2398 17.6009 11.499 17.8425 10.6571C18.084 9.81524 18.0459 8.91769 17.7337 8.09936Z" fill="#E24329"/>
<path id="Vector_2" d="M17.7337 8.09935L17.7112 8.04187C16.6501 8.25968 15.6501 8.70915 14.7828 9.35817L10 12.9747C11.6287 14.2068 13.0467 15.2774 13.0467 15.2774L16.3841 12.778L16.3924 12.7714C17.092 12.2431 17.601 11.5019 17.8429 10.6593C18.0848 9.81667 18.0465 8.91828 17.7337 8.09935Z" fill="#FC6D26"/>
<path id="Vector_3" d="M6.95337 15.2774L8.59458 16.5195L9.5943 17.2743C9.71124 17.3631 9.85403 17.4112 10.0009 17.4112C10.1477 17.4112 10.2905 17.3631 10.4074 17.2743L11.4071 16.5195L13.0483 15.2774C13.0483 15.2774 11.6287 14.2035 10 12.9747C8.37131 14.2035 6.95337 15.2774 6.95337 15.2774Z" fill="#FCA326"/>
<path id="Vector_4" d="M5.21633 9.35818C4.34974 8.70782 3.35002 8.25718 2.28882 8.03854L2.26716 8.09603C1.95366 8.91514 1.91497 9.81396 2.1569 10.657C2.39884 11.5 2.90829 12.2415 3.60845 12.7697L3.61595 12.7756L3.63594 12.7897L6.95335 15.274C6.95335 15.274 8.36962 14.2035 10 12.9713L5.21633 9.35818Z" fill="#FC6D26"/>
</g>
</g>
</svg>
