<svg width="20" height="20" viewBox="0 0 20 20" fill="none" xmlns="http://www.w3.org/2000/svg">
<g id="Loom">
<rect width="20" height="20" fill="white"/>
<g id="Group 6">
<path id="Vector" d="M10 12.2748C8.73741 12.2748 7.72517 11.2517 7.72517 10C7.72517 8.7483 8.7483 7.72517 10 7.72517C11.2517 7.72517 12.2748 8.7483 12.2748 10C12.2748 11.2517 11.2626 12.2748 10 12.2748ZM18 9.1619H13.1238L17.3469 6.72381L16.5088 5.27619L12.2857 7.71429L14.7238 3.49116L13.2762 2.65306L10.8381 6.87619V2H9.1619V6.87619L6.72381 2.65306L5.27619 3.49116L7.71429 7.71429L3.49116 5.27619L2.65306 6.72381L6.87619 9.1619H2V10.8381H6.87619L2.65306 13.2762L3.49116 14.7238L7.71429 12.2857L5.27619 16.5088L6.72381 17.3469L9.1619 13.1238V18H10.8381V13.0259L13.3197 17.3252L14.6803 16.5415L12.1986 12.2313L16.5088 14.7238L17.3469 13.2762L13.1238 10.8381H18V9.1619Z" fill="#5259A4"/>
</g>
</g>
</svg>
