<svg width="20" height="20" viewBox="0 0 20 20" fill="none" xmlns="http://www.w3.org/2000/svg">
<g id="Miro">
<rect width="20" height="20" fill="white"/>
<g id="Group 7">
<path id="Vector" d="M5.46611 2H14.5339C16.4469 2 18 3.55312 18 5.46611V14.5339C18 16.4469 16.4469 18 14.5339 18H5.46611C3.55312 18 2 16.4469 2 14.5339V5.46611C2 3.55312 3.55312 2 5.46611 2Z" fill="#FFD02F"/>
<path id="Vector_2" d="M13.1181 3.99823H11.3614L12.8246 6.5694L9.60467 3.99823H7.84794L9.45788 7.14235L6.09121 3.99823H4.33447L6.09121 7.99941L4.33447 16.0018H6.09121L9.45788 7.42646L7.84794 16.0018H9.60467L12.8246 6.85825L11.3614 16.0018H13.1181L16.338 5.99645L13.1181 3.99823Z" fill="#050038"/>
</g>
</g>
</svg>
