<svg width="20" height="20" viewBox="0 0 20 20" fill="none" xmlns="http://www.w3.org/2000/svg">
<g id="Notion">
<rect width="20" height="20" fill="white"/>
<path id="Vector" fill-rule="evenodd" clip-rule="evenodd" d="M4.5866 4.80513C5.07294 5.20945 5.25539 5.1786 6.16867 5.11625L14.7785 4.58725C14.9611 4.58725 14.8093 4.40085 14.7484 4.36988L13.3185 3.31214C13.0445 3.09448 12.6795 2.84521 11.9798 2.90757L3.64292 3.52977C3.33887 3.56061 3.27815 3.71617 3.39923 3.84085L4.5866 4.80513ZM5.10352 6.85829V16.1279C5.10352 16.626 5.34681 16.8124 5.8944 16.7816L15.3566 16.2213C15.9045 16.1905 15.9655 15.8479 15.9655 15.4432V6.23581C15.9655 5.83177 15.8136 5.61389 15.4782 5.64499L5.59014 6.23581C5.22521 6.26719 5.10352 6.45397 5.10352 6.85829ZM14.4446 7.35552C14.5053 7.63576 14.4446 7.91574 14.1702 7.94725L13.7143 8.0402V14.8836C13.3185 15.1013 12.9534 15.2257 12.6493 15.2257C12.1623 15.2257 12.0403 15.0701 11.6755 14.6038L8.69338 9.81334V14.4482L9.63706 14.6661C9.63706 14.6661 9.63706 15.2257 8.87571 15.2257L6.77683 15.3503C6.71586 15.2257 6.77683 14.9149 6.98974 14.8527L7.53745 14.6973V8.56916L6.77699 8.50681C6.71599 8.22657 6.86789 7.82251 7.29415 7.79116L9.54576 7.63585L12.6493 12.4886V8.19573L11.858 8.10281C11.7973 7.76022 12.0403 7.51146 12.3446 7.48061L14.4446 7.35552ZM2.94294 2.68994L11.6147 2.03649C12.6796 1.94303 12.9536 2.00564 13.6229 2.50313L16.391 4.49392C16.8478 4.83626 17 4.92947 17 5.30265V16.2213C17 16.9056 16.7564 17.3103 15.9046 17.3722L5.83414 17.9945C5.19476 18.0257 4.89046 17.9325 4.55562 17.4967L2.51714 14.7904C2.1519 14.2922 2 13.9196 2 13.4835V3.77827C2 3.21868 2.24369 2.75189 2.94294 2.68994Z" fill="black"/>
</g>
</svg>
