<svg width="20" height="20" viewBox="0 0 20 20" fill="none" xmlns="http://www.w3.org/2000/svg">
<g id="Sheets">
<rect width="20" height="20" fill="white"/>
<g id="Group 3">
<path id="Vector" d="M16 17.0932C15.9998 17.3336 15.9 17.5642 15.7224 17.7342C15.5448 17.9042 15.3041 17.9998 15.0529 18H4.94781C4.69669 18 4.45584 17.9046 4.27814 17.7347C4.10043 17.5648 4.0004 17.3344 4 17.0939V2.93208C3.9999 2.81288 4.02435 2.69483 4.07195 2.58468C4.11954 2.47453 4.18935 2.37445 4.27738 2.29016C4.36542 2.20587 4.46994 2.13903 4.58498 2.09345C4.70002 2.04788 4.82331 2.02447 4.94781 2.02457H11.433L16 6.4841V17.0932Z" fill="#23A566"/>
<path id="Vector_2" d="M11.9355 6.36776L15.9999 10.0874V6.45808H12.3996C12.2425 6.45978 12.0875 6.42244 11.9499 6.3497L11.9355 6.36776Z" fill="#1C8F5A"/>
<path id="Vector_3" d="M16 6.47688H12.3899C12.1388 6.47669 11.898 6.38109 11.7205 6.21107C11.5429 6.04106 11.4431 5.81053 11.4429 5.57009V2L16 6.47688Z" fill="#8ED1B1"/>
<path id="Vector_4" fill-rule="evenodd" clip-rule="evenodd" d="M13.1105 15.0549H6.86597V9.87067H13.1105V15.0549ZM10.3765 10.6185V11.526H12.343V10.6199L10.3765 10.6185ZM10.3765 12.0975V12.9646H12.343V12.0932L10.3765 12.0975ZM10.3765 13.5173V14.3201H12.343V13.513L10.3765 13.5173ZM9.60449 14.3158V13.513H7.6387V14.3158H9.60449ZM9.60449 12.9552V12.0932H7.6387V12.9595L9.60449 12.9552ZM9.60449 11.5354V10.6185H7.6387V11.526L9.60449 11.5354Z" fill="white"/>
</g>
</g>
</svg>
