<svg width="20" height="20" viewBox="0 0 20 20" fill="none" xmlns="http://www.w3.org/2000/svg">
<rect width="20" height="20" fill="white"/>
<g clip-path="url(#clip0_308_1325)">
<mask id="mask0_308_1325" style="mask-type:alpha" maskUnits="userSpaceOnUse" x="4" y="2" width="12" height="16">
<path d="M11.3682 2H5.10523C4.49735 2 4 2.48409 4 3.07576V16.702C4 17.2937 4.49735 17.7778 5.10523 17.7778H14.6839C15.2918 17.7778 15.7891 17.2937 15.7891 16.702V6.30302L11.3682 2Z" fill="white"/>
</mask>
<g mask="url(#mask0_308_1325)">
<path d="M11.3682 2H5.10523C4.49735 2 4 2.48409 4 3.07576V16.702C4 17.2937 4.49735 17.7778 5.10523 17.7778H14.6839C15.2918 17.7778 15.7891 17.2937 15.7891 16.702V6.30302L13.2102 4.5101L11.3682 2Z" fill="#F4B400"/>
</g>
<mask id="mask1_308_1325" style="mask-type:alpha" maskUnits="userSpaceOnUse" x="4" y="2" width="12" height="16">
<path d="M11.3682 2H5.10523C4.49735 2 4 2.48409 4 3.07576V16.702C4 17.2937 4.49735 17.7778 5.10523 17.7778H14.6839C15.2918 17.7778 15.7891 17.2937 15.7891 16.702V6.30302L11.3682 2Z" fill="white"/>
</mask>
<g mask="url(#mask1_308_1325)">
<path d="M12.2892 9.17172H7.49987C7.19595 9.17172 6.94727 9.41377 6.94727 9.70961V14.3712C6.94727 14.667 7.19595 14.9091 7.49987 14.9091H12.2892C12.5932 14.9091 12.8418 14.667 12.8418 14.3712V9.70961C12.8418 9.41377 12.5932 9.17172 12.2892 9.17172ZM12.105 13.2955H7.68408V10.7854H12.105V13.2955Z" fill="#F1F1F1"/>
</g>
<mask id="mask2_308_1325" style="mask-type:alpha" maskUnits="userSpaceOnUse" x="4" y="2" width="12" height="16">
<path d="M11.3682 2H5.10523C4.49735 2 4 2.48409 4 3.07576V16.702C4 17.2937 4.49735 17.7778 5.10523 17.7778H14.6839C15.2918 17.7778 15.7891 17.2937 15.7891 16.702V6.30302L11.3682 2Z" fill="white"/>
</mask>
<g mask="url(#mask2_308_1325)">
<path d="M11.6914 5.98837L15.789 9.97585V6.30303L11.6914 5.98837Z" fill="url(#paint0_linear_308_1325)"/>
</g>
<mask id="mask3_308_1325" style="mask-type:alpha" maskUnits="userSpaceOnUse" x="4" y="2" width="12" height="16">
<path d="M11.3682 2H5.10523C4.49735 2 4 2.48409 4 3.07576V16.702C4 17.2937 4.49735 17.7778 5.10523 17.7778H14.6839C15.2918 17.7778 15.7891 17.2937 15.7891 16.702V6.30302L11.3682 2Z" fill="white"/>
</mask>
<g mask="url(#mask3_308_1325)">
<path d="M11.3682 2V5.22728C11.3682 5.82163 11.8628 6.30302 12.4734 6.30302H15.7891L11.3682 2Z" fill="#FADA80"/>
</g>
<mask id="mask4_308_1325" style="mask-type:alpha" maskUnits="userSpaceOnUse" x="4" y="2" width="12" height="16">
<path d="M11.3682 2H5.10523C4.49735 2 4 2.48409 4 3.07576V16.702C4 17.2937 4.49735 17.7778 5.10523 17.7778H14.6839C15.2918 17.7778 15.7891 17.2937 15.7891 16.702V6.30302L11.3682 2Z" fill="white"/>
</mask>
<g mask="url(#mask4_308_1325)">
<path d="M11.3682 2V2.08965L15.697 6.30302H15.7891L11.3682 2Z" fill="white" fill-opacity="0.1"/>
</g>
<mask id="mask5_308_1325" style="mask-type:alpha" maskUnits="userSpaceOnUse" x="4" y="2" width="12" height="16">
<path d="M11.3682 2H5.10523C4.49735 2 4 2.48409 4 3.07576V16.702C4 17.2937 4.49735 17.7778 5.10523 17.7778H14.6839C15.2918 17.7778 15.7891 17.2937 15.7891 16.702V6.30302L11.3682 2Z" fill="white"/>
</mask>
<g mask="url(#mask5_308_1325)">
<path d="M5.10523 2C4.49735 2 4 2.48409 4 3.07576V3.1654C4 2.57374 4.49735 2.08965 5.10523 2.08965H11.3682V2H5.10523Z" fill="white" fill-opacity="0.2"/>
</g>
<mask id="mask6_308_1325" style="mask-type:alpha" maskUnits="userSpaceOnUse" x="4" y="2" width="12" height="16">
<path d="M11.3682 2H5.10523C4.49735 2 4 2.48409 4 3.07576V16.702C4 17.2937 4.49735 17.7778 5.10523 17.7778H14.6839C15.2918 17.7778 15.7891 17.2937 15.7891 16.702V6.30302L11.3682 2Z" fill="white"/>
</mask>
<g mask="url(#mask6_308_1325)">
<path d="M14.6839 17.6881H5.10523C4.49735 17.6881 4 17.204 4 16.6124V16.702C4 17.2937 4.49735 17.7778 5.10523 17.7778H14.6839C15.2918 17.7778 15.7891 17.2937 15.7891 16.702V16.6124C15.7891 17.204 15.2918 17.6881 14.6839 17.6881Z" fill="#BF360C" fill-opacity="0.2"/>
</g>
<mask id="mask7_308_1325" style="mask-type:alpha" maskUnits="userSpaceOnUse" x="4" y="2" width="12" height="16">
<path d="M11.3682 2H5.10523C4.49735 2 4 2.48409 4 3.07576V16.702C4 17.2937 4.49735 17.7778 5.10523 17.7778H14.6839C15.2918 17.7778 15.7891 17.2937 15.7891 16.702V6.30302L11.3682 2Z" fill="white"/>
</mask>
<g mask="url(#mask7_308_1325)">
<path d="M12.4734 6.30304C11.8628 6.30304 11.3682 5.82165 11.3682 5.22729V5.31693C11.3682 5.91129 11.8628 6.39269 12.4734 6.39269H15.7891V6.30304H12.4734Z" fill="#BF360C" fill-opacity="0.1"/>
</g>
<path d="M11.3682 2H5.10523C4.49735 2 4 2.48409 4 3.07576V16.702C4 17.2937 4.49735 17.7778 5.10523 17.7778H14.6839C15.2918 17.7778 15.7891 17.2937 15.7891 16.702V6.30302L11.3682 2Z" fill="url(#paint1_radial_308_1325)"/>
</g>
<defs>
<linearGradient id="paint0_linear_308_1325" x1="13.7404" y1="6.33074" x2="13.7404" y2="9.9764" gradientUnits="userSpaceOnUse">
<stop stop-color="#BF360C" stop-opacity="0.2"/>
<stop offset="1" stop-color="#BF360C" stop-opacity="0.02"/>
</linearGradient>
<radialGradient id="paint1_radial_308_1325" cx="0" cy="0" r="1" gradientUnits="userSpaceOnUse" gradientTransform="translate(4.37349 2.31362) scale(19.0098 18.5029)">
<stop stop-color="white" stop-opacity="0.1"/>
<stop offset="1" stop-color="white" stop-opacity="0"/>
</radialGradient>
<clipPath id="clip0_308_1325">
<rect width="12" height="16" fill="white" transform="translate(4 2)"/>
</clipPath>
</defs>
</svg>
