<svg width="20" height="20" viewBox="0 0 20 20" fill="none" xmlns="http://www.w3.org/2000/svg">
    <path d="M0 4.57143C0 2.97128 0 2.1712 0.31141 1.56003C0.585334 1.02242 1.02242 0.585334 1.56003 0.31141C2.1712 0 2.97128 0 4.57143 0H15.4286C17.0287 0 17.8288 0 18.44 0.31141C18.9776 0.585334 19.4147 1.02242 19.6886 1.56003C20 2.1712 20 2.97128 20 4.57143V15.4286C20 17.0287 20 17.8288 19.6886 18.44C19.4147 18.9776 18.9776 19.4147 18.44 19.6886C17.8288 20 17.0287 20 15.4286 20H4.57143C2.97128 20 2.1712 20 1.56003 19.6886C1.02242 19.4147 0.585334 18.9776 0.31141 18.44C0 17.8288 0 17.0287 0 15.4286V4.57143Z" fill="#B9B9B7"/>
    <path d="M13.1518 10.676H10.3891L10.3744 9.11134H12.6938C13.1026 9.11134 13.4375 9.05817 13.6985 8.95184C13.9595 8.84044 14.154 8.68093 14.282 8.47333C14.415 8.26066 14.4815 8.00242 14.4815 7.6986C14.4815 7.35428 14.4175 7.07578 14.2894 6.86312C14.1663 6.65045 13.9718 6.49601 13.7058 6.3998C13.4448 6.30359 13.1075 6.25549 12.6938 6.25549H11.1574V15.5294H8.9413V4.47058H12.6938C13.3193 4.47058 13.8782 4.53134 14.3707 4.65287C14.8681 4.77439 15.2891 4.95921 15.6338 5.20733C15.9785 5.45544 16.242 5.76939 16.4242 6.14915C16.6064 6.52386 16.6975 6.96945 16.6975 7.48593C16.6975 7.94165 16.5966 8.36193 16.3947 8.74676C16.1977 9.13159 15.885 9.44553 15.4565 9.68858C15.033 9.93163 14.479 10.0658 13.7945 10.0911L13.1518 10.676ZM13.0558 15.5294H9.78341L10.6477 13.7521H13.0558C13.4448 13.7521 13.7625 13.6888 14.0087 13.5622C14.2549 13.4306 14.4371 13.2533 14.5553 13.0305C14.6735 12.8077 14.7326 12.552 14.7326 12.2634C14.7326 11.9393 14.6785 11.6583 14.5701 11.4203C14.4667 11.1823 14.2993 11 14.0678 10.8735C13.8363 10.7418 13.531 10.676 13.1518 10.676H11.017L11.0318 9.11134H13.6911L14.2008 9.72656C14.8557 9.71643 15.3827 9.83543 15.7816 10.0835C16.1854 10.3266 16.4784 10.6431 16.6606 11.033C16.8477 11.4229 16.9413 11.8406 16.9413 12.2862C16.9413 12.9951 16.7911 13.5926 16.4907 14.0787C16.1903 14.5597 15.7496 14.9218 15.1685 15.1648C14.5923 15.4079 13.8881 15.5294 13.0558 15.5294Z" fill="white"/>
    <rect x="5.17666" y="4.47058" width="0.941177" height="11.0588" fill="white"/>
    <rect x="7.05886" y="4.47058" width="0.941177" height="11.0588" fill="white"/>
    <rect x="3.29419" y="4.47058" width="0.941177" height="11.0588" fill="white"/>
</svg>
