<svg width="20" height="20" viewBox="0 0 20 20" fill="none" xmlns="http://www.w3.org/2000/svg">
<g clip-path="url(#clip0_275_313)">
<path d="M6.07592 17.3537L1.66676 18.3337L2.64676 13.9245C2.00137 12.7173 1.6647 11.3692 1.66676 10.0003C1.66676 5.39783 5.39759 1.66699 10.0001 1.66699C14.6026 1.66699 18.3334 5.39783 18.3334 10.0003C18.3334 14.6028 14.6026 18.3337 10.0001 18.3337C8.63122 18.3357 7.2831 17.999 6.07592 17.3537ZM6.31759 15.5928L6.86176 15.8845C7.82722 16.4004 8.90542 16.6693 10.0001 16.667C11.3186 16.667 12.6076 16.276 13.7039 15.5435C14.8002 14.8109 15.6547 13.7697 16.1593 12.5515C16.6639 11.3334 16.7959 9.99293 16.5387 8.69972C16.2814 7.40652 15.6465 6.21863 14.7141 5.28628C13.7818 4.35393 12.5939 3.71899 11.3007 3.46176C10.0075 3.20452 8.66704 3.33654 7.44887 3.84113C6.23069 4.34571 5.1895 5.2002 4.45696 6.29652C3.72442 7.39285 3.33342 8.68178 3.33342 10.0003C3.33342 11.112 3.60426 12.182 4.11676 13.1387L4.40759 13.6828L3.86176 16.1387L6.31759 15.5928Z" fill="black"/>
</g>
<defs>
<clipPath id="clip0_275_313">
<rect width="20" height="20" fill="white"/>
</clipPath>
</defs>
</svg>
