<svg width="20" height="20" viewBox="0 0 20 20" fill="none" xmlns="http://www.w3.org/2000/svg">
<g clip-path="url(#clip0_275_307)">
<path d="M3.33341 12.5003H5.00008V16.667H15.0001V3.33366H5.00008V7.50033H3.33341V2.50033C3.33341 2.27931 3.42121 2.06735 3.57749 1.91107C3.73377 1.75479 3.94573 1.66699 4.16675 1.66699H15.8334C16.0544 1.66699 16.2664 1.75479 16.4227 1.91107C16.579 2.06735 16.6667 2.27931 16.6667 2.50033V17.5003C16.6667 17.7213 16.579 17.9333 16.4227 18.0896C16.2664 18.2459 16.0544 18.3337 15.8334 18.3337H4.16675C3.94573 18.3337 3.73377 18.2459 3.57749 18.0896C3.42121 17.9333 3.33341 17.7213 3.33341 17.5003V12.5003ZM8.33341 9.16699V6.66699L12.5001 10.0003L8.33341 13.3337V10.8337H1.66675V9.16699H8.33341Z" fill="black"/>
</g>
<defs>
<clipPath id="clip0_275_307">
<rect width="20" height="20" fill="white"/>
</clipPath>
</defs>
</svg>
