<svg width="20" height="20" viewBox="0 0 20 20" fill="none" xmlns="http://www.w3.org/2000/svg">
<g clip-path="url(#clip0_275_301)">
<path d="M10.0001 0.416992L13.5218 5.56949L19.5109 7.32699L15.6984 12.2687L15.8776 18.507L10.0001 16.4087L4.12259 18.507L4.30176 12.2687L0.489258 7.32699L6.47843 5.56949L10.0001 0.416992ZM10.0001 3.37033L7.51842 7.00199L3.29759 8.23949L5.98509 11.7212L5.85759 16.117L10.0001 14.6387L14.1418 16.117L14.0151 11.7212L16.7018 8.23949L12.4818 7.00199L10.0001 3.37033ZM8.33343 10.0003C8.33343 10.4424 8.50902 10.8663 8.82158 11.1788C9.13414 11.4914 9.55806 11.667 10.0001 11.667C10.4421 11.667 10.866 11.4914 11.1786 11.1788C11.4912 10.8663 11.6668 10.4424 11.6668 10.0003H13.3334C13.3334 10.8844 12.9822 11.7322 12.3571 12.3573C11.732 12.9825 10.8841 13.3337 10.0001 13.3337C9.11604 13.3337 8.26819 12.9825 7.64307 12.3573C7.01795 11.7322 6.66676 10.8844 6.66676 10.0003H8.33343Z" fill="black"/>
</g>
<defs>
<clipPath id="clip0_275_301">
<rect width="20" height="20" fill="white"/>
</clipPath>
</defs>
</svg>
