<svg width="20" height="20" viewBox="0 0 20 20" fill="none" xmlns="http://www.w3.org/2000/svg">
<g clip-path="url(#clip0_109_101)">
<path d="M2.50002 17.5C2.27901 17.5 2.06705 17.4122 1.91076 17.2559C1.75448 17.0996 1.66669 16.8877 1.66669 16.6667V3.33333C1.66669 3.11232 1.75448 2.90036 1.91076 2.74408C2.06705 2.5878 2.27901 2.5 2.50002 2.5H8.67835L10.345 4.16667H16.6667C16.8877 4.16667 17.0997 4.25446 17.2559 4.41074C17.4122 4.56702 17.5 4.77899 17.5 5V7.5H15.8334V5.83333H9.65502L7.98835 4.16667H3.33335V14.165L4.58335 9.16667H18.75L16.825 16.8692C16.7799 17.0494 16.6758 17.2093 16.5294 17.3236C16.3829 17.4379 16.2025 17.5 16.0167 17.5H2.50002ZM16.615 10.8333H5.88502L4.63502 15.8333H15.365L16.615 10.8333Z" fill="#B9B9B7"/>
</g>
<defs>
<clipPath id="clip0_109_101">
<rect width="20" height="20" fill="white"/>
</clipPath>
</defs>
</svg>
