<svg xmlns="http://www.w3.org/2000/svg" width="24" height="24" viewBox="0 0 24 24" fill="none">
    <rect opacity="0.01" width="24" height="24" fill="#D9D9D9"/>
    <path d="M0 1.34888C5.15608 1.11629 8.85935 1 11.1098 1C15.2973 1 18.3027 1.46518 20.1258 2.39553C21.759 3.23285 22.5757 4.50279 22.5757 6.20534C22.5757 7.22873 22.3003 8.08931 21.7496 8.78708C21.2083 9.47554 20.3774 10.071 19.257 10.5734C20.6623 11.0385 21.7448 11.6991 22.5044 12.555C23.5015 13.6807 24 15.2251 24 17.1882C24 21.4213 20.6576 23.6588 13.9727 23.9007C13.0136 23.9379 12.2682 23.9565 11.7365 23.9565C11.2047 23.9565 10.7442 23.9519 10.3549 23.9426C9.96558 23.9333 9.51929 23.9193 9.01602 23.9007C8.52225 23.8914 7.98101 23.8774 7.39228 23.8588C6.81306 23.8495 6.22433 23.8309 5.62611 23.803C5.02789 23.7844 4.43917 23.7658 3.85994 23.7472C3.28071 23.7286 2.73947 23.7053 2.2362 23.6774C1.73294 23.6588 1.28665 23.6449 0.897329 23.6355C0.508012 23.6169 0.208902 23.5983 0 23.5797V1.34888ZM14.5282 14.9693C14.5282 14.1878 14.0582 13.797 13.1181 13.797C12.4059 13.7877 11.2997 14.1924 9.79941 15.0112C9.44807 15.1972 9.14896 15.3554 8.90208 15.4856V19.0024C9.03501 18.9559 9.15846 18.9093 9.2724 18.8628C9.39585 18.8163 9.67122 18.714 10.0985 18.5558C11.6178 17.9976 12.6528 17.5371 13.2036 17.1742C14.0961 16.5881 14.5377 15.8531 14.5282 14.9693ZM8.90208 11.5502C10.5163 10.9362 11.5893 10.4478 12.1211 10.0849C13.2226 9.35924 13.7733 8.57775 13.7733 7.74043C13.7733 7.1543 13.4599 6.77751 12.8332 6.61004C12.6623 6.56353 12.4819 6.54027 12.292 6.54027C12.1021 6.54027 11.8789 6.57283 11.6226 6.63795C11.3757 6.70308 11.1288 6.78681 10.8819 6.88915C10.5021 7.0287 10.0795 7.23338 9.61424 7.50319C9.15846 7.76369 8.92107 7.90324 8.90208 7.92184V11.5502Z" fill="white"/>
</svg>